<?xml version="1.0" encoding="utf-8"?>
<!-- Generator: Adobe Illustrator 16.0.0, SVG Export Plug-In . SVG Version: 6.00 Build 0)  -->
<!DOCTYPE svg PUBLIC "-//W3C//DTD SVG 1.1//EN" "http://www.w3.org/Graphics/SVG/1.1/DTD/svg11.dtd">
<svg version="1.1" id="Layer_1" xmlns="http://www.w3.org/2000/svg" xmlns:xlink="http://www.w3.org/1999/xlink" x="0px" y="0px"
	 width="401.5px" height="400.5px" viewBox="0 0 401.5 400.5" enable-background="new 0 0 401.5 400.5" xml:space="preserve">
<path fill="#050505" d="M129.612,61.659c3.26-1.66,6.03-4.74,9.69-5.33c8.83,1.72,17.82,0.26,26.721,0.63
	c2.92-0.13,3.699,3.33,5.18,5.17c3.779-0.27,7.57-1.3,11.369-0.83c2.851,0.98,4.601,3.75,7.351,4.97c4.42,2.17,7.94,5.66,11.42,9.05
	c2.359,2.08,1.148,5.57,1.318,8.3c3.342,0.93,6.871,0.89,10.142-0.35c0.931,2.51,2.07,4.95,3.57,7.18
	c-0.04,3.12,1.038,6.04,2.26,8.85c1.319,2.9,0.812,6.14,1.12,9.22c0.96,6.46,3.949,12.47,4.658,18.98
	c-0.549,6.71-2.26,13.3-2.68,20.04l-0.108,0.81c-1.802,11.48-1.591,23.19-2.78,34.75c-0.279,6.28-0.37,12.62-2.238,18.69
	l-0.222,0.87c-0.21,0.56-0.63,1.68-0.84,2.239c0.271-7.58,0.062-15.169,0.34-22.75c0.24-5.15-0.01-10.45-2.08-15.24
	c-1.92-4.55-3.479-9.36-3.198-14.37c0.18-9.87,0.129-20.53-5.262-29.19c-5.63-7.67-14.021-12.99-22.79-16.4
	c-13.311-3.95-27.4-2.69-41.03-4.59c-7.16-0.8-14.55-0.8-21.51,1.27c-8.15,2.26-17.17,3.24-23.79,9.01
	c-4.61,4.12-9.61,8.52-11.3,14.71c-2.77,8.43-0.44,17.36-1.44,25.98c-1.12,4.83-3.87,9.25-3.88,14.34
	c-1.52,9.46-0.81,19.06-0.81,28.59c-0.01,0.47-0.02,1.41-0.03,1.87c-0.28,0.29-0.84,0.86-1.13,1.15c-0.75-2.91-1.38-5.87-2.45-8.68
	c-1.28-2.85-3.92-4.79-5.29-7.59c-0.67-3.14-0.3-6.4-0.34-9.58l0.07-0.86c1.09-6.59,1.4-13.32,0.78-19.97
	c-1.07-7.69-4.52-15.47-2.07-23.27c1.87-5.4,1.97-11.48,5.36-16.28c2.34-3.36,2.36-7.78,4.94-11c2.81-3.54,5.46-7.47,9.49-9.74
	c2.26-1.33,4.91-1.64,7.45-2.12c0-0.58-0.01-1.15-0.01-1.73c-1.54-1.22-3.08-2.44-4.44-3.87c2.86-1.2,5.88-1.96,8.88-2.74
	c-1.21-2.26-2.41-4.52-3.6-6.79c4.13-1.96,9.22-2.13,12.51-5.63c4-4.3,10.5-4.73,14.45-9.16c0.55-0.44,1.11-0.89,1.66-1.34
	c1.1,0.7,2.2,1.4,3.33,2.07C128.672,61.159,129.302,61.489,129.612,61.659z"/>
<path fill="#989898" d="M120.012,103.629c6.96-2.07,14.35-2.07,21.51-1.27c13.629,1.9,27.719,0.64,41.03,4.59
	c8.77,3.41,17.16,8.73,22.79,16.4c5.39,8.66,5.44,19.32,5.261,29.19c-0.281,5.01,1.279,9.82,3.199,14.37
	c2.07,4.79,2.32,10.09,2.08,15.24c-1.13,3.22-2.359,6.41-3.45,9.64c-7.13,0.91-14.38,1.45-21.21,3.84
	c-5.04,1.78-10.029,3.7-15.15,5.24c10.631,3.58,21.301,8.34,29.36,16.34c4.61,4.76,1.39,11.852-2.579,15.87
	c0.68,1.729,1.459,3.43,1.909,5.25c-2.271,2.93-5.95,4.641-7.5,8.15c-1.55,3.369-3.25,6.72-5.89,9.39
	c-0.391-2.39-0.721-4.78-1.01-7.17c-4.121,2.819-8.28,5.64-11.82,9.2c-3.96,3.92-8.301,7.84-13.83,9.289
	c-6.17,1.49-13.1,1.66-18.71-1.709c2.159-2.16,4.21-4.461,6.659-6.291c2.24-1.641,5.141-1.689,7.761-2.219
	c0-0.48,0.01-1.432,0.01-1.9c5.49-0.35,12.69-0.23,15.69-5.78c0.02-2.05,0.93-4.8-0.79-6.36c-3.05-1.39-6.521-0.229-9.55,0.65
	c-1.371,1-2.66,2.1-3.94,3.22c-1.431-2.319-2.91-4.6-4.47-6.828c-1.811,1-3.61,2.02-5.391,3.059c-1.06-1.021-2.119-2.021-3.22-2.989
	c-4.34-1.04-8.72-2.31-13.2-2.511c-3.62,0.5-7.31,1.58-10.38,3.591c-2.02,1.58-1.61,4.37-0.39,6.311
	c0.46,0.67,1.38,2.021,1.84,2.699c-1.84,0.051-3.9,0.53-5.51-0.64c-3.21-2.15-6.08-4.83-9.65-6.421
	c-0.51,3.939-0.86,7.9-1.27,11.851c-3.35-5.8-5.05-12.351-6.34-18.87c-1.07-6.34-1.07-13.46,3.04-18.79
	c4.17-6.539,11.12-10.59,18.45-12.63c-0.63,3.13-1.21,6.36-2.83,9.181c-2.75,5.109-7.33,8.93-10.11,14.02
	c-1.86,3.4-0.81,7.38-0.47,11c4.38-2.25,8.71-4.98,13.72-5.52c4.53-0.512,9.12-0.84,13.5-2.201c0.76-2.719,1.57-5.42,2.46-8.101
	c-2.7-2.17-5.39-4.35-7.89-6.739c5.82-0.23,11.36,1.629,16.65,3.859c2.01-2.76,4-5.93,7.4-7.13c6.17-2.819,12.779,0.319,19.189-0.36
	c-0.1-2.55-0.199-5.1-0.311-7.649c-2.76-0.46-5.569-0.75-8.25-1.62c-2.189-0.721-3.279-2.95-4.689-4.59
	c1.74-0.73,3.51-1.43,5.27-2.15c-2.25-7.32-7.629-13.26-9.25-20.8c-1.109-4.71-1.83-9.67-0.889-14.47
	c1.119-5.62,6.34-10.13,12.1-10.28c5.92-0.18,11.91-0.05,17.779,0.92c4.051,0.62,7.461,3.16,10.08,6.2
	c-5.81-0.7-11.51-2.75-17.42-2.15c-2.77,0.05-4.84,2.11-6.97,3.6c6.489,3.36,13.95,3.5,20.79,5.81c3.689,1.18,7.52,2.69,11.46,1.93
	c1.08-0.11,2.16-0.24,3.239-0.38c-1.939-5.22-4.579-10.12-7.399-14.9c-2.899-4.96-4.101-10.61-5.78-16.03
	c-1.26-4.33-5.539-6.67-7.539-10.57c-2.74-5.08-4.881-11.229-10.34-14.03c-4.4-1.75-8.99,0.63-13.261,1.71
	c-2.75-2.37-5.55-4.91-9.12-5.94c-8.029-2.39-16.48-2.47-24.79-2.5c-7.53-0.13-14.3,3.56-21.21,6.03c-3.89,1.54-8.08,2.33-11.8,4.3
	c-3.3,2.06-5.41,5.58-6.84,9.12c-2.7,7.5-2.8,15.56-3.86,23.37c-0.92,7.35-5.12,13.62-8.37,20.1c0.01-5.09,2.76-9.51,3.88-14.34
	c1-8.62-1.33-17.55,1.44-25.98c1.69-6.19,6.69-10.59,11.3-14.71C102.842,106.869,111.862,105.889,120.012,103.629z"/>
<path fill="#D0D0D0" d="M110.472,110.779c6.91-2.47,13.68-6.16,21.21-6.03c8.31,0.03,16.761,0.11,24.79,2.5
	c3.57,1.03,6.37,3.57,9.12,5.94c4.271-1.08,8.86-3.46,13.261-1.71c5.459,2.8,7.6,8.95,10.34,14.03c2,3.9,6.279,6.24,7.539,10.57
	c1.68,5.42,2.881,11.07,5.78,16.03c2.82,4.78,5.46,9.68,7.399,14.9c-1.079,0.14-2.159,0.27-3.239,0.38
	c-2.61-3.07-5.17-6.19-7.86-9.19c-2.619-3.04-6.029-5.58-10.08-6.2c-5.869-0.97-11.859-1.1-17.779-0.92
	c-5.76,0.15-10.98,4.66-12.1,10.28c-0.941,4.8-0.221,9.76,0.889,14.47c1.621,7.54,7,13.48,9.25,20.8
	c-1.76,0.72-3.529,1.42-5.27,2.15c1.41,1.64,2.5,3.87,4.689,4.59c2.681,0.87,5.49,1.16,8.25,1.62c0.111,2.55,0.211,5.1,0.311,7.649
	c-6.41,0.68-13.02-2.459-19.189,0.36c-3.4,1.2-5.391,4.37-7.4,7.13c-5.29-2.23-10.83-4.09-16.65-3.859
	c2.5,2.39,5.19,4.569,7.89,6.739c-0.89,2.681-1.7,5.382-2.46,8.101c-4.38,1.361-8.97,1.689-13.5,2.201
	c-5.01,0.539-9.34,3.27-13.72,5.52c-0.34-3.62-1.39-7.6,0.47-11c2.78-5.09,7.36-8.91,10.11-14.02c1.62-2.82,2.2-6.051,2.83-9.181
	c-7.33,2.04-14.28,6.091-18.45,12.63c-4.11,5.33-4.11,12.45-3.04,18.79c1.29,6.521,2.99,13.07,6.34,18.87
	c0.41-3.948,0.76-7.909,1.27-11.851c3.57,1.591,6.44,4.271,9.65,6.421c1.61,1.17,3.67,0.688,5.51,0.64
	c1.06,0.021,2.13,0.061,3.2,0.16c-1.97-0.83-2.74,2.7-0.4,2.01c0.27-0.369,0.8-1.13,1.07-1.51c0.32,0.25,0.97,0.729,1.3,0.971
	c3.69,3.159,8.84,2.939,13.39,3.5c5.07,0.801,10.161-0.061,15.24-0.189c0,0.47-0.01,1.42-0.01,1.9
	c-2.62,0.528-5.521,0.578-7.761,2.219c-2.449,1.83-4.5,4.131-6.659,6.291c5.61,3.369,12.54,3.199,18.71,1.709
	c5.529-1.449,9.87-5.369,13.83-9.289c3.54-3.562,7.699-6.381,11.82-9.2c0.289,2.39,0.619,4.78,1.01,7.17
	c2.64-2.67,4.34-6.021,5.89-9.39c1.55-3.51,5.229-5.222,7.5-8.15c-0.449-1.819-1.229-3.521-1.908-5.25
	c3.969-4.021,7.188-11.11,2.578-15.87c-8.06-8-18.729-12.76-29.36-16.34c5.121-1.54,10.11-3.46,15.15-5.24
	c6.83-2.39,14.08-2.93,21.21-3.84c1.092-3.23,2.32-6.42,3.45-9.64c-0.278,7.58-0.069,15.17-0.34,22.75
	c-2.062,4.851-2.931,10.07-3.33,15.301c0.562,0.58,1.698,1.73,2.26,2.3c1.302-1.34,3.091-2.399,3.79-4.19
	c0.07-5.279-1.602-10.39-1.88-15.649l0.222-0.87c1.27,2.34,2.52,4.7,3.77,7.061c-0.83,3.66-1.18,7.41-2.131,11.049
	c-1.569,5.841-5.109,10.931-6.699,16.761c-0.99,3.58-1.48,7.27-2.25,10.891c-2.03,10.159-6.439,19.59-9.971,29.271
	c-0.369,0.47-1.119,1.42-1.489,1.89c-1.351,2.932-2.29,6.432-5.39,8.04c-6.25,3.74-12.011,8.399-18.82,11.142
	c-4.29,1.738-8.53,3.619-12.91,5.129c-3.62,1.359-7.46,0.24-11.17,0.09c-4.63-0.399-8.8,2.271-13.38,2.381
	c-3.93-0.58-7.43-2.65-11.11-4.02c2.49,2.59,5.28,4.858,8.01,7.188c4,3.358,5.79,8.76,10.32,11.569c3.67,2.75,8.87,4.55,10.4,9.289
	c-1.53,4.521-4.98,8.031-7.66,11.892c2.199,3.41,4.01,7.52,7.8,9.45c4.11,1.318,8.351-0.75,12.53-0.46
	c2.34,1.398,1.97,4.75,2.859,7.05c0.45,3.51,3.28,5.84,5.57,8.25c-6.71,9.91-16.99,16.74-24.189,26.26
	c-5.911-3.41-12.46-5.83-17.661-10.359c-3.57-3.131-7.43-5.921-10.99-9.051c-4.78-4.199-5.22-10.949-7.24-16.59
	c-3.92-13.25-16.24-22.17-19.13-35.88c4.6,5.05,8.03,11.29,14.04,14.892c3.06,1.938,7.59,5.68,10.76,1.908
	c0.14-2.101-0.27-4.18-0.57-6.25c2.38-2.8,5.85-5.3,6.47-9.119c-1.07-5.721-6.88-8.689-9.83-13.369
	c-6.33-8.201-7.16-18.961-12.34-27.74c-4.37-7.811-8.1-15.971-10.62-24.561c-3.1-7.101-5.83-14.37-7.12-22.051
	c-3.45,0.14-7.77,1.79-10.47-1.2c-7.61-7.65-10.69-18.38-17.23-26.81c1.61,0.83,3.18,1.739,4.8,2.58c1.32-5.62,3.47-11,4.79-16.61
	c0.74-2.36-2.31-3.65-4.19-3.71c-2.91-0.34-4.67,2.63-5.79,4.87c-2.03,4.1-0.92,8.74,0.39,12.87c-3.72-4.71-3.28-11.71,0.29-16.35
	c2.34-2.63,8.161-4.375,11.331-5.535c-1.082-2.794-0.896-5.648-0.831-10.465c0.04,3.18-0.33,6.44,0.34,9.58
	c1.37,2.8,4.01,4.74,5.29,7.59c1.07,2.81,1.7,5.77,2.45,8.68c-3.3,3.58-6.75,7.2-8.91,11.61c-1.3,3.06,2.69,6.609,5.53,4.739
	c3.07-2.1,3.46-6.159,4.48-9.44c0.92,0.211,1.85,0.421,2.78,0.641c-0.73-3.57-1.67-7.08-2.72-10.57c0-9.53-0.71-19.13,0.81-28.59
	c3.25-6.48,7.45-12.75,8.37-20.1c1.059-7.813,1.159-15.873,3.859-23.373c1.43-3.54,3.54-7.06,6.84-9.12
	C102.392,113.109,106.582,112.319,110.472,110.779z"/>
<path fill="#989898" d="M218.842,183.099c1.19-11.56,0.979-23.27,2.78-34.75c-1.385,13.418-2.311,26.615-3,39.775
	c1.84,1.37,4.58,2.465,6.389,3.865c-0.43,5.9-3.021,11.26-4.64,16.86c-1.25-2.36-2.5-4.721-3.771-7.061
	C218.472,195.719,218.562,189.379,218.842,183.099z"/>
<path fill="#989898" d="M104.282,154.609c10.35-3.16,21.37-1.39,31.69,0.97c1.84,0.32,3.67,1.92,3.57,3.89
	c-0.7,2.76-2.26,5.22-2.85,8.01c-0.67,4.25,1.43,8.36,1.01,12.6c-0.91,3.06-4.34,4.01-6.85,5.36c-5.27,2.3-10.02,6.28-15.98,6.59
	c-4.96,0.48-9.52-1.91-13.83-4.04c2.13-3.09,5.67-4.45,8.99-5.82c-3.27-4.94-9.66-1.82-14.38-1.62c1.2-2.68,2.61-5.78,5.61-6.81
	c1.42,0.09,2.76,0.58,4.11,0.97c-2.33,1.01-4.56,2.25-6.68,3.64c3.44-0.26,6.8-1.04,10.14-1.84c1.5-0.56,2.85,0.6,4.21,1.06
	c2.94,1.59,6.34,1.52,9.58,1.73c0.49-1.22,0.99-2.45,1.48-3.67c2.85,1.56,5.9,3.03,9.26,2.43c-4.96-4.99-12.21-6.65-19.03-6.12
	l-0.86,0.03c-0.33-1.3-0.66-2.6-0.98-3.89c-1.79,0.2-3.58,0.38-5.37,0.58c1.66-1.34,3.32-2.68,4.96-4.04
	c-6.49-0.38-13.01,1.44-19.44,0.01C95.772,160.559,99.552,156.749,104.282,154.609z"/>
<path fill="#050505" d="M119.082,156.349c2.54-0.58,5.27-1.95,7.84-0.7c2.23,0.33,2.47,2.9,3.39,4.53
	c-8.05,1.42-16.31,0.38-24.45,0.81C110.052,158.889,114.542,157.489,119.082,156.349z"/>
<path fill="#050505" d="M174.422,159.649c2.13-1.49,4.2-3.55,6.97-3.6c5.91-0.6,11.61,1.45,17.42,2.15c2.69,3,5.25,6.12,7.86,9.19
	c-3.94,0.76-7.771-0.75-11.46-1.93C188.372,163.149,180.911,163.009,174.422,159.649z"/>
<path fill="#050505" d="M168.911,172.389c2.341-1.46,5.091-2.07,7.721-2.82c-0.02,1.22-0.04,2.44-0.061,3.66
	c4.15-0.19,8.391-0.78,12.49,0.14c4.891,1.61,9.721,4.22,12.83,8.44c-7.01-1.37-14.15-0.68-21.23-0.74
	c-0.119-1.81-0.219-3.62-0.299-5.43c-3.19,0.32-6.131,1.75-8.19,4.23c1.94,0.09,3.88,0.11,5.819,0.12
	c-0.239,0.77-0.469,1.55-0.699,2.32c-3.24-0.75-6.439-1.66-9.631-2.59C167.853,177.279,166.943,174.309,168.911,172.389z"/>
<path fill="#050505" d="M105.372,174.709c2.91-1.13,5.86-2.31,8.96-2.77c6.82-0.53,14.07,1.13,19.03,6.12
	c-3.36,0.6-6.41-0.87-9.26-2.43c-0.49,1.22-0.99,2.45-1.48,3.67c-3.24-0.21-6.64-0.14-9.58-1.73c-1.36-0.46-2.71-1.62-4.21-1.06
	c-3.34,0.8-6.7,1.58-10.14,1.84C100.812,176.959,103.042,175.719,105.372,174.709z"/>
<path fill="#989898" d="M58.372,192.909c1.12-2.24,2.88-5.21,5.79-4.87c1.88,0.06,4.93,1.35,4.19,3.71
	c-1.32,5.61-3.47,10.99-4.79,16.61c-1.62-0.84-3.19-1.75-4.8-2.58C57.452,201.648,56.342,197.009,58.372,192.909z"/>
<path fill="#989898" d="M78.792,196.259c1.05,3.49,1.99,7,2.72,10.57c-0.93-0.22-1.86-0.431-2.78-0.64
	c-1.02,3.279-1.41,7.34-4.48,9.439c-2.84,1.87-6.83-1.68-5.53-4.74c2.16-4.41,5.61-8.029,8.91-11.61c0.29-0.29,0.85-0.86,1.13-1.15
	C78.772,197.669,78.782,196.729,78.792,196.259z"/>
<path fill="#989898" d="M215.542,204.898c0.21-0.56,0.63-1.68,0.84-2.239c0.279,5.26,1.95,10.37,1.88,15.649
	c-0.7,1.791-2.489,2.851-3.79,4.19c-0.561-0.569-1.699-1.72-2.26-2.3C212.612,214.969,213.481,209.749,215.542,204.898z"/>
<path fill="#050505" d="M169.792,235.759c6.05-1.858,11.88,1.931,18,1.341c1.83,3.051-0.7,6.319-3.74,7.141
	c-2.34,0.659-4.17,2.239-5.6,4.149c-0.01-3.101,0.83-6.631-0.961-9.391C174.842,238.089,171.922,237.729,169.792,235.759z"/>
<path fill="#D0D0D0" d="M125.182,241.119c3.07-2.012,6.76-3.092,10.38-3.592c4.48,0.201,8.86,1.472,13.2,2.512
	c-2.77,0.79-4.98,2.64-6.75,4.86c-2.3-1.4-4.64-3.011-7.4-3.28c-2.16-0.33-3.98,1.14-5.77,2.101c-0.91-0.131-1.82-0.271-2.73-0.391
	c-0.44,1.359-0.89,2.73-1.32,4.1C123.572,245.489,123.162,242.699,125.182,241.119z"/>
<path fill="#050505" d="M114.022,241.579c2.37-3.08,6.21-3.74,9.8-4.32c-1,2.61-1.71,5.311-2.38,8.01
	C118.922,244.129,116.412,242.979,114.022,241.579z"/>
<path fill="#FEFEFE" d="M128.842,243.72c1.79-0.961,3.61-2.431,5.77-2.101c2.76,0.271,5.1,1.88,7.4,3.28
	c1.77-2.221,3.98-4.07,6.75-4.86c1.101,0.97,2.16,1.97,3.22,2.989c1.78-1.039,3.58-2.06,5.391-3.06
	c1.56,2.229,3.039,4.511,4.47,6.829c1.28-1.119,2.569-2.22,3.94-3.22c0.369,2.3,0.72,4.608,1.029,6.93
	c0.78,0.181,1.57,0.36,2.36,0.53c-7.649-0.16-15.3,0.229-22.95,0.09c-4.79-0.811-9.68-0.22-14.42,0.63
	c-0.33-0.239-0.98-0.72-1.3-0.97l-0.67-0.5c-1.07-0.102-2.14-0.141-3.2-0.16c-0.46-0.68-1.38-2.029-1.84-2.7
	c0.43-1.368,0.88-2.739,1.32-4.1C127.022,243.449,127.932,243.589,128.842,243.72z"/>
<path fill="#D0D0D0" d="M165.782,243.579c3.029-0.88,6.5-2.04,9.55-0.65c1.72,1.562,0.81,4.312,0.79,6.36
	c-2.311,0.56-4.5,1.96-6.95,1.75c-0.79-0.17-1.58-0.351-2.36-0.53C166.502,248.188,166.152,245.879,165.782,243.579z"/>
<path fill="#050505" d="M131.802,251.759c4.74-0.85,9.63-1.439,14.42-0.63c7.65,0.14,15.301-0.25,22.95-0.09
	c2.45,0.21,4.64-1.19,6.95-1.75c-3,5.55-10.2,5.431-15.69,5.78c-5.079,0.13-10.17,0.99-15.24,0.188
	C140.642,254.699,135.492,254.919,131.802,251.759z"/>
<path fill="#989898" d="M129.432,252.299c-2.34,0.69-1.57-2.84,0.4-2.01l0.67,0.5C130.232,251.169,129.702,251.929,129.432,252.299z
	"/>
<path fill="#050505" d="M197.832,278.709c0.37-0.47,1.12-1.42,1.489-1.89c3.622,2.81,7.141,5.91,9.36,9.99
	c2.439,4.5,5.811,8.448,7.971,13.108c3,7.351,9.899,12.13,16.83,15.41c19.029,11.278,39.351,20.16,58.649,30.93
	c0,0,17.5,15.74,22.75,28.99s8.251,26.251,8.251,26.251h-179.58c2.4-3.17,4.63-6.46,7.141-9.54
	c7.199-9.52,17.479-16.35,24.189-26.26c3.66-5.63,7.77-10.95,12.01-16.142c-0.73-1.898-1.68-3.75-1.98-5.778
	c1.221-4.88,3.9-9.24,5.5-13.99c2.591-7.63,5.711-15.181,6.691-23.24c0.479-3.319,0.909-6.649,1.239-9.989
	C198.902,290.599,197.472,284.669,197.832,278.709z"/>
<path fill="#989898" d="M192.443,286.749c3.1-1.609,4.039-5.109,5.39-8.04c-0.36,5.96,1.069,11.89,0.51,17.851
	c-0.33,3.34-0.76,6.67-1.239,9.989c-0.98,8.06-4.101,15.61-6.691,23.24c-1.6,4.75-4.279,9.11-5.5,13.99
	c0.301,2.028,1.25,3.88,1.98,5.778c-4.24,5.19-8.35,10.512-12.01,16.142c-2.29-2.41-5.12-4.74-5.57-8.25
	c-0.89-2.3-0.52-5.65-2.859-7.05c-4.18-0.29-8.42,1.778-12.53,0.46c-3.79-1.932-5.601-6.04-7.8-9.45
	c2.68-3.86,6.13-7.37,7.66-11.891c-1.53-4.74-6.73-6.539-10.4-9.289c-4.53-2.812-6.32-8.211-10.32-11.57
	c-2.73-2.33-5.52-4.6-8.01-7.189c3.68,1.369,7.18,3.439,11.11,4.021c4.58-0.11,8.75-2.78,13.38-2.382
	c3.71,0.15,7.55,1.271,11.17-0.09c4.38-1.51,8.62-3.39,12.91-5.129C180.432,295.149,186.193,290.489,192.443,286.749z"/>
<path fill="#989898" d="M76.022,308.519c5.18-9.24,8.66-19.75,16.57-27.188c1.32,8.04-0.82,16.08-0.84,24.149
	c-1-7.131,0.23-14.279-0.14-21.42c-5.69,5.391-7.26,13.25-9.94,20.279c-1.36,3.551-2.03,7.311-2.29,11.09
	c-0.44,4.92-2.12,9.59-3.29,14.35c-0.98,3.941-0.2,8.041-0.81,12.021c-0.56,3.19-3.14,5.37-5.07,7.771
	c-3.36,3.858-6.16,8.71-11.16,10.66c-2.95,1.408-7.03,1.729-8,5.408c1.8,1.682,3.58,3.4,5.26,5.2c1.76-0.729,3.5-1.5,5.27-2.22
	c0.11,6.31-0.57,12.77,1.33,18.898c1.41,4.53,1.97,9.25,1.7,13.98h-18.96c-0.43-7.07,0.2-14.1,1.73-21
	c-0.05-5.8,1.07-11.55,1.12-17.32c-3.63-2.62-8.31-2.738-12.57-3.41c1.57-3.14,3.92-5.788,7.11-7.328
	c3.11-1.472,4.84-4.49,6.25-7.46c1.35,0.108,2.7,0.22,4.05,0.34c-1.73,3.87-4.58,7.028-7.1,10.39c-1.41,1.8,0.04,3.98,0.67,5.79
	c1.79-0.46,3.85-0.53,5.22-1.93c2.66-2.7,4.38-6.262,7.45-8.58c1.59-1.38,3.67-2.392,4.59-4.38c1.13-2.74,1.34-5.74,1.58-8.66
	c-2.19,0.029-4.37,0.05-6.55,0.061c-0.44-4.311,3.15-8.4,0.75-12.521c-8.43,4.069-16.89,8.618-23.51,15.358
	c-3.43,2.921-0.83,7.46-0.24,11.052c-3.57-2.28-8.05-1.722-11.62,0.21c-2.25,1.72-3.59,4.31-5.27,6.528
	c-5.64,7.69-12.11,14.761-19.18,21.15v-19.271c10.34-5.858,20.04-12.788,30.52-18.43c6.84-3.529,11.53-9.97,18.15-13.84
	C57.992,321.879,69.392,318.009,76.022,308.519z"/>
<path fill="#050505" d="M81.672,304.339c2.68-7.029,4.25-14.89,9.94-20.279c0.37,7.141-0.86,14.289,0.14,21.42
	c0.31,6.101,1.11,12.24,3.19,18.011c1.4,4.17,3.51,8.1,4.4,12.43c0.63,4.33-0.18,8.83,1.14,13.07c1.43,5.42,5.22,9.76,7.21,14.95
	c2.16,5.43,5.24,10.479,9.13,14.84c6.31,7.239,12.42,14.648,17.64,22.72h-32.49c-2.52-5.85-3.46-12.229-5.95-18.09
	c-1.96-4.562-3.16-9.38-4.51-14.141c-1.57,10.659-0.51,21.489-0.96,32.229h-25.94c0.27-4.729-0.29-9.45-1.7-13.979
	c-1.9-6.131-1.22-12.591-1.33-18.899c-1.77,0.72-3.51,1.49-5.27,2.22c-1.68-1.8-3.46-3.52-5.26-5.2c0.97-3.68,5.05-4,8-5.408
	c5-1.95,7.8-6.802,11.16-10.66c1.93-2.4,4.51-4.58,5.07-7.771c0.61-3.979-0.17-8.078,0.81-12.021c1.17-4.761,2.85-9.431,3.29-14.351
	C79.642,311.649,80.312,307.89,81.672,304.339z"/>
<path fill="#989898" d="M91.752,305.479c1.57,4.789,2.37,9.799,3.92,14.6c2.89,13.71,15.21,22.63,19.13,35.88
	c2.02,5.64,2.46,12.39,7.24,16.59c3.56,3.13,7.42,5.92,10.99,9.05c5.2,4.53,11.75,6.95,17.661,10.36
	c-2.511,3.08-4.741,6.37-7.141,9.54h-9.09c-5.22-8.07-11.33-15.48-17.64-22.72c-3.89-4.36-6.97-9.41-9.13-14.84
	c-1.99-5.19-5.78-9.53-7.21-14.95c-1.32-4.24-0.51-8.74-1.14-13.07c-0.89-4.33-3-8.26-4.4-12.43
	C92.862,317.72,92.062,311.579,91.752,305.479z"/>
<path fill="#050505" d="M36.442,340.849c6.62-6.74,15.08-11.289,23.51-15.358c2.4,4.118-1.19,8.21-0.75,12.52
	c2.18-0.01,4.36-0.028,6.55-0.06c-0.24,2.92-0.45,5.92-1.58,8.66c-0.92,1.988-3,3-4.59,4.38c-3.07,2.318-4.79,5.88-7.45,8.58
	c-1.37,1.398-3.43,1.47-5.22,1.93c-0.63-1.81-2.08-3.99-0.67-5.79c2.52-3.36,5.37-6.52,7.1-10.39c-1.35-0.12-2.7-0.23-4.05-0.341
	c-1.41,2.971-3.14,5.989-6.25,7.461c-3.19,1.539-5.54,4.188-7.11,7.328c4.26,0.672,8.94,0.79,12.57,3.41
	c-0.05,5.771-1.17,11.521-1.12,17.32c-1.53,6.9-2.16,13.93-1.73,21h-30.53c3.74-7.85,6.6-16.1,10.25-23.99
	c2.84-6.16,8.51-10.79,9.9-17.648c-3.98,2.34-6.49,6.26-8.74,10.148c-3.08,5.42-8.89,9.19-10.32,15.521
	c-1.23,5.3-1.72,10.77-3.38,15.97h-12.7v-21.71c7.07-6.39,13.54-13.46,19.18-21.15c1.68-2.22,3.02-4.81,5.27-6.528
	c3.57-1.932,8.05-2.49,11.62-0.21C35.612,348.309,33.012,343.769,36.442,340.849z"/>
<path fill="#989898" d="M26.532,370.009c2.25-3.89,4.76-7.81,8.74-10.148c-1.39,6.858-7.06,11.488-9.9,17.648
	c-3.65,7.891-6.51,16.141-10.25,23.99h-2.29c1.66-5.2,2.15-10.67,3.38-15.97C17.642,379.199,23.452,375.429,26.532,370.009z"/>
<path fill="#989898" d="M91.512,369.269c1.35,4.762,2.55,9.58,4.51,14.142c2.49,5.858,3.43,12.24,5.95,18.09h-11.42
	C91.002,390.759,89.942,379.929,91.512,369.269z"/>
<path fill="#EFEFEF" d="M91.623,296.475c0.129,9.005,0.291,11.667,2.371,17.437l1.679,6.171c4.021,5.292,8.084,11.417,15.19,15.55
	c6.71,3.902,7.59,5.68,10.76,1.908l-1.395-6.908c2.38-2.8,5.85-5.3,6.47-9.119c-1.07-5.721-6.88-8.689-9.83-13.369l-0.59-1.979
	c-6.33-8.201-7.16-18.961-12.34-27.74c-4.37-7.811-8.1-15.971-10.62-24.561l-6.294-20.071c2.556,10.246,8.709,42.398,5.567,47.538
	L91.623,296.475z"/>
</svg>
